<?xml version="1.0" encoding="UTF-8" standalone="no"?>
<!-- Created with Inkscape (http://www.inkscape.org/) -->

<svg
   width="100"
   height="100"
   viewBox="0 0 100 100"
   version="1.1"
   id="svg5"
   xmlns:xlink="http://www.w3.org/1999/xlink"
   xmlns="http://www.w3.org/2000/svg"
   xmlns:svg="http://www.w3.org/2000/svg">
  <defs
     id="defs2">
    <color-profile
       name="Agfa-:-Swop-Standard"
       xlink:href="../../../Windows/system32/spool/drivers/color/RSWOP.icm"
       id="color-profile1410" />
  </defs>
  <path
     id="rect117"
     style="fill:#340045;fill-opacity:1;stroke-width:0.730771"
     d="M 0,30.750644 V 69.249366 A 30.75064,30.750642 0 0 0 30.750642,99.999999 H 69.249358 A 30.75064,30.750642 0 0 0 100,69.249366 V 30.750644 A 30.75064,30.750642 0 0 0 69.249358,1.485e-6 H 30.750642 A 30.75064,30.750642 0 0 0 0,30.750644 Z" />
  <path
     style="fill:#ffffff;fill-opacity:0;stroke:#ffffff;stroke-opacity:0"
     id="path2026"
     d="m 40.703008,22.423013 c 0.84654,2.389844 1.46331,4.873458 1.75459,7.394766 0.0668,0.578095 0.0953,1.159972 0.14296,1.739957 0.095,2.318437 -0.18373,4.628374 -0.18728,6.94372 0.0159,1.721467 -0.11224,3.439491 -0.2016,5.157389 -0.0865,1.228718 -0.21282,2.453503 -0.34521,3.677875 -0.034,0.9009 -0.0762,1.800346 -0.142,2.701271 -0.13212,1.032961 -0.0142,2.077392 -0.15107,3.107685 -3.076894,4.154563 -0.43712,0.48351 13.03632,7.264091 0.13467,0.06777 0.0569,-0.296563 0.0992,-0.44126 0.12953,-0.442853 0.3431,-0.805816 0.61117,-1.175357 0.9543,-1.089455 1.80412,-2.26507 2.67763,-3.422486 0.95122,-1.140322 0.47774,-0.577789 1.42013,-1.687841 0,0 -11.98966,-7.173897 -11.98966,-7.173897 v 0 c -0.854,1.113523 -0.40366,0.562129 -1.35413,1.651633 -0.16997,0.163615 -1.27034,1.224955 -1.48871,1.427539 -0.18675,0.173243 -0.37963,0.339757 -0.56944,0.509635 -0.18088,0.147579 -0.3712,0.284293 -0.54264,0.442736 -0.28206,0.260682 -0.50751,0.561614 -0.74719,0.858909 -0.0247,0.03846 -0.53558,0.833942 -0.56511,0.877142 -0.0861,0.125915 -0.1659,0.257755 -0.26917,0.369982 -0.0564,0.06128 -0.27605,0.10246 -0.204,0.144213 13.24834,7.677488 14.86625,11.900585 12.91727,7.013645 -0.0994,-1.014529 0.0168,-2.031093 0.0512,-3.047042 0.0796,-0.915759 0.28086,-1.826603 0.21766,-2.747225 -0.0609,-1.265068 -0.0706,-2.530938 0.013,-3.795729 0.12302,-1.775398 -0.004,-3.545173 0.0369,-5.322694 0.0461,-2.493846 -0.21146,-4.98654 -0.50939,-7.45965 -0.20206,-1.771719 -0.36714,-3.540571 -0.48667,-5.31994 -0.0243,-0.362347 -0.13592,-1.977317 -0.11107,-2.460333 0.0114,-0.221161 0.0752,-0.436476 0.11281,-0.654714 0,0 -13.2265,-6.57402 -13.2265,-6.57402 z" />
  <path
     style="fill:#ffffff;fill-opacity:0;stroke:#ffffff;stroke-opacity:0"
     id="path1020"
     d="m 26.460086,31.895309 c 0.84654,2.389844 1.46331,4.873458 1.75458,7.394766 0.0668,0.578095 0.0953,1.159972 0.14297,1.739957 0.095,2.318437 -0.18373,4.628374 -0.18728,6.94372 0.0159,1.721467 -0.11224,3.439491 -0.2016,5.157389 -0.0865,1.228718 -0.21282,2.453503 -0.34521,3.677875 -0.034,0.9009 -0.0762,1.800346 -0.142,2.701271 -0.13212,1.032961 -0.0142,2.077392 -0.15107,3.107685 -3.0769,4.154563 -0.43712,0.48351 13.03632,7.264091 0.13467,0.06777 0.0569,-0.296563 0.0992,-0.44126 0.12953,-0.442853 0.3431,-0.805816 0.61117,-1.175357 0.95429,-1.089455 1.80411,-2.26507 2.67763,-3.422486 0.95121,-1.140322 0.47774,-0.577789 1.42013,-1.687841 0,0 -11.98966,-7.173897 -11.98966,-7.173897 v 0 c -0.854,1.113523 -0.40366,0.562129 -1.35413,1.651633 -0.16997,0.163615 -1.27034,1.224955 -1.48871,1.427539 -0.18675,0.173243 -0.37963,0.339757 -0.56944,0.509635 -0.18088,0.147579 -0.3712,0.284293 -0.54264,0.442736 -0.28207,0.260682 -0.50751,0.561614 -0.74719,0.858909 -0.0247,0.03846 -0.53558,0.833942 -0.56511,0.877142 -0.0861,0.125915 -0.1659,0.257755 -0.26917,0.369982 -0.0564,0.06128 -0.27605,0.10246 -0.204,0.144213 13.24834,7.677488 14.86625,11.900585 12.91727,7.013645 -0.0994,-1.014529 0.0168,-2.031093 0.0512,-3.047042 0.0796,-0.915759 0.28086,-1.826603 0.21766,-2.747225 -0.0609,-1.265068 -0.0706,-2.530938 0.013,-3.795729 0.12302,-1.775398 -0.004,-3.545173 0.0369,-5.322694 0.0461,-2.493846 -0.21146,-4.98654 -0.50939,-7.45965 -0.20207,-1.771719 -0.36714,-3.540571 -0.48667,-5.31994 -0.0243,-0.362347 -0.13593,-1.977317 -0.11107,-2.460333 0.0114,-0.221161 0.0752,-0.436476 0.11281,-0.654714 0,0 -13.2265,-6.57402 -13.2265,-6.57402 z" />
  <g
     id="g1028"
     transform="translate(-2.502738,0.03642531)">
    <path
       style="fill:#ffffff;fill-opacity:1;stroke:#6046ff;stroke-width:0;stroke-dasharray:none;stroke-opacity:0"
       d="m 34.434606,57.638551 c 0.56607,-2.252162 0.15114,-4.605056 0.39603,-6.891569 0.0931,-0.869471 0.37158,-1.710938 0.50388,-2.575462 0.23083,-1.508441 0.24664,-3.478055 0.78353,-4.940855 0.1889,-0.514684 0.57872,-0.957118 0.69486,-1.492339 0.13724,-0.632503 0.0332,-1.293194 0.0499,-1.939791 0.004,-0.143684 -0.0946,-0.332036 0.0111,-0.431064 0.16713,-0.156577 0.49448,-0.04257 0.66161,-0.199146 0.1057,-0.09903 0.007,-0.287377 0.0111,-0.431064 0.0169,-0.656821 0.14626,-2.030964 0.28519,-2.580925 0.005,-0.02016 1.27833,-3.422919 1.40634,-3.631276 0.44007,-0.716239 1.36288,-1.008123 2.007,-1.459569 0.16808,-0.117803 0.25509,-0.349447 0.44846,-0.420139 0.18409,-0.0673 0.84922,0.06913 1.09344,0.02731 0.83009,-0.142169 1.5694,-0.468232 2.42221,-0.586516 0.56851,-0.07885 1.17827,0.09963 1.74951,0.04369 2.5538,-0.250042 5.10178,0.14055 7.65965,-0.02437 1.69141,-0.109048 3.3598,-0.342061 5.04647,-0.520972 0.87302,-0.09261 1.77283,0.03855 2.6298,-0.149989 0.27483,-0.06047 2.21046,-0.53109 2.42775,-0.802048 0.0905,-0.112734 -0.0946,-0.332037 0.0111,-0.431065 0.0971,-0.091 1.63538,-0.168146 1.97928,-0.381907 0.13792,-0.08572 0.0821,-0.357399 0.22978,-0.425604 0.13205,-0.061 0.29789,0.05291 0.43737,0.01093 0.0986,-0.02968 0.12561,-0.180378 0.22424,-0.210069 0.13947,-0.04199 0.29789,0.0529 0.43737,0.01092 0.70669,-0.212715 1.70945,-0.913124 2.6409,-0.581055 0.95045,0.338846 0.45534,0.900897 1.06019,1.320504 0.32111,0.222762 0.79078,0.199144 1.08236,0.458374 0.24214,0.215278 0.21801,0.617075 0.41521,0.873052 0.37416,0.485684 0.9278,0.823802 1.27888,1.325965 0.73204,1.046778 0.0523,1.018675 0.39304,1.735181 0.0692,0.145504 0.0953,0.320052 0.20761,0.436527 0.0502,0.05217 0.22053,-0.06638 0.21869,0.0055 -0.004,0.160645 -0.17431,0.274488 -0.22977,0.425602 -0.13927,0.379428 0.4897,1.223944 0.17989,1.514187 -0.0529,0.04944 -0.16583,-0.05498 -0.21869,-0.0055 -0.26058,0.244121 0.18969,1.133344 0.19652,0.86759 0.004,-0.16588 -0.75908,0.434907 -1.54744,0.608363 -2.26199,0.497685 0.17255,-0.274095 -2.86513,0.791124 -1.01773,0.356889 -1.76023,0.81872 -2.86512,0.791124 -0.62329,-0.01557 -0.64939,0.282887 -1.32322,0.398293 -0.89537,0.15335 -1.94402,0.28335 -2.85404,0.360059 -2.36638,0.199474 -4.21886,-0.09835 -6.16208,1.355792 -1.10256,0.825058 -0.33959,0.501821 -1.35647,1.691486 -0.047,0.05496 -0.16583,-0.05498 -0.21868,-0.0055 -0.26426,0.247569 -0.39549,0.618877 -0.67824,0.845743 -0.25289,0.202914 -0.62344,0.218387 -0.88584,0.409217 -0.4149,0.301726 -0.71049,0.743053 -1.12115,1.050353 -0.33865,0.253402 -0.75043,0.395745 -1.11007,0.619286 -0.83945,0.521772 -1.46688,1.284766 -2.23677,1.885171 -0.40052,0.312357 -1.71688,1.149042 -2.00699,1.459568 -0.26844,0.287327 -1.04247,1.473633 -1.14332,1.91248 -0.0805,0.350459 0.0696,0.731375 -0.0277,1.077662 -0.15317,0.544795 -0.61559,0.816366 -0.45954,0.851204 1.31008,0.292436 3.04152,0.07596 4.37377,0.109237 0.58317,0.01457 1.16919,-0.01491 1.74951,0.0437 0.36988,0.03735 0.74629,0.09817 1.0879,0.242842 0.0947,0.04012 -0.12114,0.212645 -0.22423,0.21007"
       id="path1022" />
    <path
       style="fill:#ffffff;fill-opacity:1;stroke:#6046ff;stroke-width:0;stroke-dasharray:none;stroke-opacity:0"
       d="m 70.570866,42.288587 c -0.56606,2.252162 -0.15114,4.605057 -0.39602,6.891569 -0.0931,0.869471 -0.37159,1.710939 -0.50389,2.575462 -0.23083,1.508441 -0.24664,3.478055 -0.78353,4.940855 -0.1889,0.514686 -0.57872,0.957118 -0.69486,1.492339 -0.13724,0.632503 -0.0333,1.293195 -0.0499,1.939791 -0.004,0.143684 0.0946,0.332036 -0.0111,0.431064 -0.16713,0.156577 -0.49447,0.04257 -0.6616,0.199146 -0.10571,0.09903 -0.007,0.287377 -0.0111,0.431064 -0.0169,0.65682 -0.14627,2.030965 -0.28519,2.580925 -0.005,0.02016 -1.27833,3.422919 -1.40635,3.631276 -0.44006,0.716238 -1.36288,1.008123 -2.00699,1.459569 -0.16808,0.117803 -0.25509,0.349448 -0.44846,0.42014 -0.18409,0.0673 -0.84923,-0.06914 -1.09345,-0.02731 -0.83009,0.142169 -1.56939,0.468233 -2.4222,0.586517 -0.56851,0.07885 -1.17828,-0.09963 -1.74951,-0.04369 -2.55381,0.250043 -5.10179,-0.140551 -7.65965,0.02437 -1.69142,0.109048 -3.35981,0.342061 -5.04647,0.520972 -0.87303,0.09261 -1.77284,-0.03855 -2.62981,0.14999 -0.27482,0.06047 -2.21045,0.531089 -2.42774,0.802048 -0.0905,0.112734 0.0946,0.332037 -0.0111,0.431064 -0.0971,0.091 -1.63538,0.168146 -1.97929,0.381907 -0.13792,0.08572 -0.0821,0.3574 -0.22977,0.425603 -0.13205,0.061 -0.2979,-0.05291 -0.43738,-0.01092 -0.0986,0.02968 -0.12561,0.180378 -0.22423,0.21007 -0.13948,0.04199 -0.2979,-0.0529 -0.43738,-0.01092 -0.70668,0.212714 -1.70944,0.913124 -2.64089,0.581054 -0.95045,-0.338845 -0.45535,-0.900897 -1.06019,-1.320503 -0.32111,-0.222771 -0.79079,-0.199144 -1.08236,-0.458374 -0.24215,-0.215278 -0.21801,-0.617075 -0.41521,-0.873052 -0.37416,-0.485685 -0.9278,-0.823802 -1.27889,-1.325965 -0.73203,-1.046778 -0.0523,-1.018675 -0.39304,-1.735181 -0.0692,-0.145513 -0.0953,-0.320054 -0.2076,-0.436526 -0.0502,-0.05217 -0.22054,0.06638 -0.21869,-0.0055 0.004,-0.160646 0.17431,-0.27448 0.22977,-0.425603 0.13926,-0.379429 -0.4897,-1.223943 -0.1799,-1.514186 0.0529,-0.04944 0.16584,0.05498 0.21869,0.0055 0.26058,-0.244122 -0.18969,-1.133345 -0.19652,-0.86759 -0.004,0.165879 0.75909,-0.434907 1.54745,-0.608365 2.26198,-0.497685 -0.17255,0.274095 2.86512,-0.791123 1.01773,-0.356889 1.76023,-0.81872 2.86512,-0.791124 0.62329,0.01557 0.6494,-0.282888 1.32322,-0.398292 0.89537,-0.153351 1.94402,-0.283351 2.85404,-0.36006 2.36638,-0.199474 4.21886,0.09835 6.16208,-1.355793 1.10257,-0.825058 0.3396,-0.50182 1.35647,-1.691486 0.047,-0.05496 0.16583,0.05498 0.21869,0.0055 0.26426,-0.24757 0.39549,-0.618877 0.67823,-0.845744 0.2529,-0.202914 0.62344,-0.218386 0.88584,-0.409217 0.4149,-0.301724 0.71049,-0.743052 1.12115,-1.050351 0.33864,-0.25341 0.75043,-0.395746 1.11007,-0.619286 0.83945,-0.521772 1.46688,-1.284767 2.23677,-1.885173 0.40053,-0.312357 1.71689,-1.149041 2.00699,-1.459567 0.26844,-0.287327 1.04247,-1.473632 1.14332,-1.91248 0.0805,-0.350459 -0.0696,-0.731374 0.0277,-1.077661 0.15317,-0.544797 0.61558,-0.816374 0.45955,-0.851205 -1.31009,-0.292437 -3.04153,-0.07596 -4.37378,-0.109238 -0.58317,-0.01456 -1.16919,0.01491 -1.74951,-0.04369 -0.36988,-0.03735 -0.74629,-0.09817 -1.0879,-0.242842 -0.0948,-0.04012 0.12114,-0.212645 0.22423,-0.21007"
       id="path1024" />
  </g>
</svg>
