<?xml version="1.0" encoding="UTF-8" standalone="no"?>
<!-- Created with Inkscape (http://www.inkscape.org/) -->

<svg
   width="100.00002"
   height="100"
   viewBox="0 0 100.00002 100"
   version="1.1"
   id="svg5"
   xmlns:xlink="http://www.w3.org/1999/xlink"
   xmlns="http://www.w3.org/2000/svg"
   xmlns:svg="http://www.w3.org/2000/svg">
  <defs
     id="defs2">
    <color-profile
       name="Agfa-:-Swop-Standard"
       xlink:href="../../../Windows/system32/spool/drivers/color/RSWOP.icm"
       id="color-profile3128" />
  </defs>
  <g
     id="g1115"
     transform="matrix(1.3181322,0,0,1.2869521,-290.13125,-5.0198624)">
    <path
       style="fill:#ffffff;fill-opacity:1;stroke:#6046ff;stroke-width:0;stroke-dasharray:none;stroke-opacity:0"
       d="m 228.07593,55.480312 c 0.93877,-3.735014 0.25065,-7.637083 0.65678,-11.429066 0.1544,-1.441942 0.61623,-2.837441 0.83565,-4.271179 0.38281,-2.501617 0.40903,-5.76805 1.2994,-8.193977 0.31328,-0.853559 0.95976,-1.587296 1.15238,-2.474914 0.22759,-1.048951 0.0551,-2.14465 0.0828,-3.216974 0.007,-0.238287 -0.15689,-0.550653 0.0184,-0.714882 0.27717,-0.259669 0.82005,-0.0706 1.09721,-0.330266 0.1753,-0.164233 0.0116,-0.476591 0.0184,-0.714882 0.028,-1.08928 0.24256,-3.368177 0.47296,-4.280239 0.008,-0.03343 2.12,-5.676613 2.3323,-6.022155 0.72981,-1.18782 2.26021,-1.671884 3.32844,-2.420568 0.27874,-0.195366 0.42303,-0.579527 0.74372,-0.696764 0.3053,-0.111611 1.40836,0.114646 1.81339,0.04529 1.37663,-0.235776 2.60271,-0.7765227 4.01702,-0.9726866 0.94283,-0.130766 1.95406,0.1652282 2.90141,0.072454 4.23526,-0.4146726 8.46086,0.2330906 12.70286,-0.040418 2.80506,-0.1808463 5.57194,-0.5672781 8.36913,-0.8639867 1.44783,-0.1535851 2.94009,0.063931 4.3613,-0.2487435 0.45578,-0.1002845 3.66585,-0.8807669 4.02621,-1.3301264 0.15009,-0.1869594 -0.15689,-0.5506549 0.0184,-0.7148838 0.16103,-0.1509157 2.71213,-0.2788556 3.28246,-0.6333598 0.22873,-0.142159 0.13616,-0.5927152 0.38107,-0.7058272 0.21899,-0.1011633 0.49402,0.087747 0.72533,0.018128 0.16353,-0.049222 0.20832,-0.2991408 0.37189,-0.3483804 0.2313,-0.069638 0.49403,0.08773 0.72534,0.018111 1.17199,-0.3527699 2.83497,-1.5143365 4.3797,-0.9636295 1.57624,0.5619463 0.75515,1.4940596 1.75823,2.1899408 0.53254,0.3694311 1.31145,0.3302631 1.79501,0.7601732 0.40156,0.3570199 0.36155,1.0233652 0.68859,1.4478807 0.62051,0.8054644 1.53867,1.3662041 2.12091,2.1989972 1.21402,1.735991 0.0867,1.689384 0.65182,2.877647 0.11476,0.241306 0.15805,0.530779 0.3443,0.723942 0.0833,0.08652 0.36573,-0.110085 0.36268,0.0091 -0.007,0.266416 -0.28908,0.455214 -0.38105,0.705824 -0.23097,0.629248 0.81212,2.029804 0.29833,2.511147 -0.0877,0.08199 -0.27501,-0.09118 -0.36268,-0.0091 -0.43215,0.404854 0.31458,1.879553 0.32591,1.438823 0.007,-0.275097 -1.25886,0.721255 -2.56629,1.008917 -3.75132,0.825367 0.28616,-0.454563 -4.75157,1.31201 -1.68782,0.59187 -2.91919,1.357776 -4.75156,1.31201 -1.03366,-0.02582 -1.07695,0.469143 -2.19444,0.660535 -1.48489,0.254317 -3.22398,0.469911 -4.73317,0.597126 -3.92444,0.33081 -6.99662,-0.163105 -10.21928,2.248462 -1.8285,1.368287 -0.56318,0.832227 -2.24959,2.805183 -0.078,0.09115 -0.27501,-0.09118 -0.36266,-0.0091 -0.43825,0.410572 -0.65588,1.026354 -1.1248,1.402591 -0.41939,0.336515 -1.03392,0.362176 -1.46908,0.678651 -0.68808,0.500386 -1.17829,1.232288 -1.85933,1.741918 -0.56162,0.420246 -1.24453,0.656309 -1.84096,1.027033 -1.39215,0.865313 -2.43269,2.130672 -3.70949,3.126391 -0.66423,0.518017 -2.84729,1.905586 -3.32841,2.420566 -0.44519,0.476507 -1.72885,2.443892 -1.8961,3.171682 -0.1335,0.581205 0.11542,1.212921 -0.0459,1.787208 -0.25402,0.903495 -1.02091,1.353872 -0.76211,1.411648 2.17265,0.484979 5.0441,0.125972 7.25352,0.18116 0.96713,0.02417 1.939,-0.02473 2.90141,0.07247 0.61341,0.06194 1.23765,0.162806 1.80419,0.402732 0.15704,0.06653 -0.20091,0.352653 -0.37187,0.348383"
       id="path1284" />
    <path
       style="fill:#ffffff;fill-opacity:1;stroke:#6046ff;stroke-width:0;stroke-dasharray:none;stroke-opacity:0"
       d="m 288.00477,30.023736 c -0.93876,3.735014 -0.25065,7.637085 -0.65676,11.429066 -0.1544,1.441942 -0.61625,2.837443 -0.83566,4.271179 -0.38281,2.501618 -0.40903,5.768051 -1.29942,8.193977 -0.31327,0.853562 -0.95975,1.587297 -1.15236,2.474914 -0.2276,1.048952 -0.0553,2.144651 -0.0828,3.216974 -0.007,0.238288 0.15689,0.550653 -0.0184,0.714883 -0.27717,0.259668 -0.82003,0.0706 -1.09721,0.330266 -0.1753,0.164232 -0.0116,0.476589 -0.0184,0.714882 -0.028,1.089278 -0.24258,3.368177 -0.47297,4.280242 -0.008,0.03345 -2.12,5.676606 -2.3323,6.022152 -0.72981,1.187817 -2.26022,1.67188 -3.32842,2.420571 -0.27875,0.195361 -0.42305,0.579525 -0.74373,0.696759 -0.3053,0.111617 -1.40838,-0.114657 -1.8134,-0.04526 -1.37663,0.235779 -2.60269,0.77653 -4.017,0.972692 -0.94283,0.130761 -1.95408,-0.165233 -2.90141,-0.07243 -4.23528,0.414673 -8.46087,-0.233095 -12.70287,0.04039 -2.80507,0.180843 -5.57195,0.567279 -8.36912,0.863983 -1.44785,0.153588 -2.9401,-0.06392 -4.36132,0.248746 -0.45577,0.100286 -3.66584,0.880764 -4.0262,1.330132 -0.15008,0.186954 0.15689,0.550653 -0.0184,0.714879 -0.16103,0.150912 -2.71214,0.278857 -3.28248,0.633356 -0.22873,0.142158 -0.13616,0.592715 -0.38105,0.705828 -0.219,0.101161 -0.49405,-0.08775 -0.72536,-0.01809 -0.16353,0.04922 -0.20831,0.299141 -0.37187,0.348379 -0.23131,0.06962 -0.49404,-0.08772 -0.72536,-0.01809 -1.17196,0.352773 -2.83495,1.514344 -4.37968,0.963633 -1.57624,-0.561943 -0.75516,-1.494061 -1.75824,-2.189945 -0.53253,-0.369439 -1.31145,-0.330259 -1.795,-0.760169 -0.40158,-0.357019 -0.36154,-1.023369 -0.68858,-1.447878 -0.62051,-0.805469 -1.53868,-1.366206 -2.12093,-2.199004 -1.21401,-1.735984 -0.0867,-1.68938 -0.65183,-2.877643 -0.11475,-0.241321 -0.15804,-0.530783 -0.34428,-0.723939 -0.0832,-0.08652 -0.36575,0.110081 -0.36268,-0.0091 0.007,-0.266419 0.28908,-0.455198 0.38106,-0.705827 0.23094,-0.629252 -0.81213,-2.029798 -0.29835,-2.511144 0.0877,-0.08201 0.27503,0.09118 0.36267,0.0091 0.43215,-0.404853 -0.31458,-1.879555 -0.3259,-1.438826 -0.007,0.2751 1.25888,-0.721255 2.56631,-1.008916 3.75129,-0.825364 -0.28617,0.454563 4.75155,-1.312012 1.68781,-0.591865 2.91918,-1.357774 4.75155,-1.312004 1.03367,0.02585 1.07697,-0.469148 2.19444,-0.660536 1.48489,-0.254321 3.22399,-0.469913 4.73318,-0.597128 3.92445,-0.33081 6.99662,0.163105 10.21928,-2.248464 1.82851,-1.368287 0.5632,-0.832225 2.24959,-2.805182 0.078,-0.09115 0.27501,0.09118 0.36267,0.0091 0.43825,-0.410573 0.65589,-1.026354 1.12479,-1.402593 0.41941,-0.336515 1.03392,-0.362174 1.46909,-0.67865 0.68807,-0.500383 1.17828,-1.232288 1.85933,-1.741916 0.56161,-0.420258 1.24452,-0.65631 1.84095,-1.027032 1.39216,-0.865314 2.4327,-2.130674 3.70949,-3.126395 0.66424,-0.518017 2.84731,-1.905584 3.32842,-2.420565 0.44518,-0.476507 1.72884,-2.443889 1.8961,-3.171681 0.13349,-0.581206 -0.11543,-1.212919 0.0459,-1.787207 0.25401,-0.903498 1.02088,-1.353885 0.76212,-1.411648 -2.17267,-0.484983 -5.04411,-0.125974 -7.25353,-0.181162 -0.96714,-0.02415 -1.939,0.02473 -2.90141,-0.07245 -0.61341,-0.06194 -1.23766,-0.162806 -1.80419,-0.402733 -0.15722,-0.06653 0.2009,-0.352652 0.37187,-0.348382"
       id="path1286" />
  </g>
</svg>
