<?xml version="1.0" encoding="UTF-8" standalone="no"?>
<!-- Created with Inkscape (http://www.inkscape.org/) -->

<svg
   width="100"
   height="100"
   viewBox="0 0 100 100"
   version="1.1"
   id="svg5"
   xmlns="http://www.w3.org/2000/svg"
   xmlns:svg="http://www.w3.org/2000/svg">
  <defs
     id="defs2" />
  <g
     id="layer1">
    <path
       id="rect117"
       style="fill:#340045;fill-opacity:1;stroke-width:0.654197"
       d="M 5.2392085,32.767669 V 67.232331 A 27.528459,27.528459 45 0 0 32.767668,94.76079 l 34.464664,0 A 27.528459,27.528459 135 0 0 94.760791,67.232331 l 0,-34.464662 A 27.528459,27.528459 45 0 0 67.232332,5.2392096 l -34.464665,0 A 27.528459,27.528459 135 0 0 5.2392085,32.767669 Z" />
    <path
       style="fill:#ffffff;fill-opacity:0;stroke:#ffffff;stroke-opacity:0"
       id="path2026"
       d="m 26.025244,22.423013 c 0.846547,2.389844 1.46331,4.873458 1.754588,7.394766 0.06678,0.578095 0.09531,1.159972 0.142961,1.739957 0.09497,2.318437 -0.183722,4.628374 -0.187274,6.94372 0.01593,1.721467 -0.112242,3.439491 -0.201599,5.157389 -0.08648,1.228718 -0.212819,2.453503 -0.345214,3.677875 -0.03399,0.9009 -0.07624,1.800346 -0.141995,2.701271 -0.132123,1.032961 -0.01424,2.077392 -0.151074,3.107685 -3.076895,4.154563 -0.437118,0.48351 13.036319,7.264091 0.134667,0.06777 0.0569,-0.296563 0.09922,-0.44126 0.129528,-0.442853 0.343105,-0.805816 0.611172,-1.175357 0.954294,-1.089455 1.804114,-2.26507 2.677626,-3.422486 0.951218,-1.140322 0.477745,-0.577789 1.42013,-1.687841 0,0 -11.98966,-7.173897 -11.98966,-7.173897 v 0 c -0.853996,1.113523 -0.403659,0.562129 -1.354125,1.651633 -0.169973,0.163615 -1.270341,1.224955 -1.488716,1.427539 -0.186748,0.173243 -0.379627,0.339757 -0.56944,0.509635 -0.180878,0.147579 -0.371192,0.284293 -0.542634,0.442736 -0.282067,0.260682 -0.507511,0.561614 -0.747192,0.858909 -0.02472,0.03846 -0.535583,0.833942 -0.565108,0.877142 -0.08605,0.125915 -0.165901,0.257755 -0.269173,0.369982 -0.05639,0.06128 -0.276045,0.10246 -0.203995,0.144213 13.248332,7.677488 14.866247,11.900585 12.917263,7.013645 -0.09943,-1.014529 0.01677,-2.031093 0.05118,-3.047042 0.07965,-0.915759 0.280865,-1.826603 0.217664,-2.747225 -0.06092,-1.265068 -0.07058,-2.530938 0.01303,-3.795729 0.123016,-1.775398 -0.0044,-3.545173 0.03687,-5.322694 0.04612,-2.493846 -0.211459,-4.98654 -0.509391,-7.45965 -0.202065,-1.771719 -0.367139,-3.540571 -0.486669,-5.31994 -0.02434,-0.362347 -0.135926,-1.977317 -0.111072,-2.460333 0.01138,-0.221161 0.07521,-0.436476 0.112809,-0.654714 0,0 -13.2265,-6.57402 -13.2265,-6.57402 z" />
    <path
       style="fill:#ffffff;fill-opacity:1;stroke:#6046ff;stroke-width:0;stroke-dasharray:none;stroke-opacity:0"
       d="M 42.999704,65.080012 C 42.06976,63.321397 40.464131,62.050722 39.312182,60.450984 38.874141,59.842667 38.568883,59.147899 38.158353,58.520687 37.44205,57.426314 36.326796,56.158162 35.829416,54.920648 35.654414,54.485229 35.647286,53.98288 35.4147,53.575303 c -0.27486,-0.481659 -0.717833,-0.845511 -1.076749,-1.268267 -0.07976,-0.09394 -0.249309,-0.159008 -0.239278,-0.281836 0.01586,-0.194207 0.287255,-0.305628 0.303117,-0.499835 0.01003,-0.122827 -0.159519,-0.187891 -0.239277,-0.281836 -0.364592,-0.42944 -1.068101,-1.380827 -1.294748,-1.81066 -0.0083,-0.01576 -1.149981,-2.908156 -1.188349,-3.113445 -0.13189,-0.705693 0.282836,-1.411889 0.430794,-2.063178 0.03861,-0.169953 -0.0389,-0.367042 0.04256,-0.521114 0.07755,-0.146673 0.5746,-0.433948 0.704592,-0.598194 0.441829,-0.558269 0.721396,-1.182992 1.191186,-1.738782 0.313177,-0.370508 0.799358,-0.599723 1.127346,-0.95711 1.466334,-1.59776 3.294981,-2.782655 4.812505,-4.328276 1.003479,-1.022054 1.921634,-2.110402 2.882207,-3.174447 0.497199,-0.550757 1.139103,-0.973533 1.571382,-1.576583 0.138624,-0.193397 1.089424,-1.584122 1.071547,-1.8797 -0.0074,-0.123012 -0.249309,-0.15901 -0.239278,-0.281837 0.0092,-0.112857 0.934408,-1.028287 1.028988,-1.358586 0.03793,-0.13246 -0.152424,-0.274744 -0.09836,-0.401476 0.04836,-0.11335 0.217937,-0.1339 0.281838,-0.239278 0.04519,-0.07451 -0.0239,-0.186046 0.02128,-0.260556 0.0639,-0.105377 0.217933,-0.133905 0.281837,-0.239277 0.323767,-0.533889 0.555481,-1.546282 1.332104,-1.858422 0.792469,-0.318507 0.801589,0.3196 1.422426,0.247317 0.329598,-0.03838 0.612048,-0.317922 0.943869,-0.316357 0.275562,0.0013 0.489897,0.271772 0.760392,0.324395 0.513227,0.09985 1.055243,0.0043 1.563343,0.127679 1.059275,0.257078 0.614902,0.621839 1.238947,0.888069 0.126732,0.05406 0.24287,0.150983 0.380196,0.162198 0.06142,0.0051 0.101038,-0.166611 0.140918,-0.119638 0.08917,0.105034 0.04698,0.273632 0.09836,0.401475 0.129012,0.320993 1.007791,0.506791 0.978389,0.86679 -0.0051,0.06141 -0.135905,0.05822 -0.140918,0.119639 -0.02473,0.302793 0.766989,0.617789 0.619474,0.444034 -0.09208,-0.108453 -0.229851,0.705449 -0.627513,1.260227 -1.140976,1.591777 -0.04786,-0.272394 -1.353384,2.118977 -0.437397,0.801198 -0.641414,1.514521 -1.353384,2.118978 -0.401633,0.340984 -0.247579,0.546495 -0.606233,0.99967 -0.476577,0.602174 -1.063074,1.275721 -1.592661,1.83714 -1.377124,1.4599 -2.714535,2.312516 -3.108244,4.336315 -0.223393,1.148281 0.0727,0.51204 0.1116,1.845179 0.0018,0.06159 -0.135905,0.05822 -0.140918,0.119639 -0.02508,0.30707 0.104356,0.618348 0.0558,0.92259 -0.04343,0.272122 -0.268072,0.490644 -0.324395,0.760392 -0.08906,0.42651 -0.02319,0.875097 -0.106398,1.302787 -0.06862,0.352682 -0.246768,0.675537 -0.345676,1.020948 -0.230862,0.806232 -0.190324,1.647313 -0.332435,2.464654 -0.07393,0.425214 -0.425394,1.701304 -0.430794,2.063177 -0.005,0.334842 0.184996,1.529105 0.372157,1.86646 0.149465,0.269408 0.461713,0.428379 0.598194,0.704592 0.21472,0.434551 0.07849,0.868537 0.196718,0.802951 0.992562,-0.550665 1.959893,-1.663936 2.818367,-2.392776 0.375784,-0.319037 0.728205,-0.667833 1.127347,-0.95711 0.254406,-0.184379 0.526327,-0.357424 0.824232,-0.457276 0.08262,-0.0277 0.04515,0.204159 -0.02128,0.260557"
       id="path7675" />
    <path
       style="fill:#ffffff;fill-opacity:1;stroke:#6046ff;stroke-width:0;stroke-dasharray:none;stroke-opacity:0"
       d="m 57.000296,34.919988 c 0.929945,1.758614 2.535574,3.02929 3.687523,4.629027 0.43804,0.608318 0.743299,1.303086 1.153828,1.930298 0.716303,1.094373 1.831558,2.362524 2.328937,3.600039 0.175004,0.435419 0.182131,0.937767 0.414716,1.345345 0.274861,0.481659 0.717834,0.845511 1.07675,1.268266 0.07976,0.09394 0.249309,0.159009 0.239277,0.281837 -0.01586,0.194207 -0.287254,0.305628 -0.303116,0.499834 -0.01003,0.122828 0.159519,0.187891 0.239277,0.281837 0.364591,0.429439 1.068101,1.380827 1.294748,1.810659 0.0083,0.01576 1.149981,2.908157 1.188348,3.113446 0.13189,0.705692 -0.282836,1.411889 -0.430793,2.063178 -0.03861,0.169952 0.0389,0.367042 -0.04256,0.521114 -0.07755,0.146672 -0.574601,0.433947 -0.704593,0.598193 -0.441829,0.558269 -0.721395,1.182992 -1.191185,1.738783 -0.313178,0.370508 -0.799357,0.599722 -1.127347,0.95711 -1.466333,1.59776 -3.294981,2.782654 -4.812505,4.328276 -1.003479,1.022054 -1.921633,2.110402 -2.882206,3.174446 -0.497199,0.550757 -1.139103,0.973533 -1.571382,1.576584 -0.138624,0.193397 -1.089424,1.584121 -1.071547,1.8797 0.0074,0.123012 0.249309,0.15901 0.239278,0.281836 -0.0092,0.112858 -0.934408,1.028287 -1.028989,1.358587 -0.03793,0.132459 0.152425,0.274744 0.09836,0.401475 -0.04836,0.113351 -0.217937,0.133901 -0.281837,0.239278 -0.04519,0.07451 0.0239,0.186046 -0.02128,0.260557 -0.0639,0.105377 -0.217932,0.133905 -0.281837,0.239277 -0.323767,0.533888 -0.555481,1.546282 -1.332104,1.858421 -0.792469,0.318508 -0.801589,-0.3196 -1.422425,-0.247316 -0.329599,0.03837 -0.612048,0.317922 -0.94387,0.316357 -0.275562,-0.0013 -0.489897,-0.271772 -0.760391,-0.324396 -0.513227,-0.09985 -1.055243,-0.0043 -1.563343,-0.127678 -1.059275,-0.257079 -0.614903,-0.621839 -1.238947,-0.888069 -0.126733,-0.05407 -0.242871,-0.150984 -0.380196,-0.162198 -0.06142,-0.0051 -0.101039,0.166611 -0.140919,0.119638 -0.08917,-0.105035 -0.04697,-0.273632 -0.09836,-0.401475 -0.129013,-0.320994 -1.007791,-0.506791 -0.978389,-0.86679 0.0051,-0.06141 0.135904,-0.05822 0.140918,-0.119639 0.02473,-0.302794 -0.76699,-0.617789 -0.619474,-0.444034 0.09208,0.108452 0.229851,-0.705449 0.627512,-1.260228 1.140976,-1.591777 0.04786,0.272394 1.353385,-2.118977 0.437396,-0.801197 0.641413,-1.51452 1.353383,-2.118977 0.401633,-0.340985 0.247579,-0.546496 0.606234,-0.99967 0.476576,-0.602174 1.063073,-1.275721 1.59266,-1.83714 1.377124,-1.4599 2.714535,-2.312516 3.108244,-4.336316 0.223393,-1.148281 -0.0727,-0.512039 -0.1116,-1.845179 -0.0018,-0.06159 0.135905,-0.05822 0.140918,-0.119639 0.02508,-0.30707 -0.104355,-0.618348 -0.0558,-0.92259 0.04343,-0.272122 0.268072,-0.490643 0.324396,-0.760392 0.08906,-0.426509 0.02319,-0.875097 0.106398,-1.302786 0.06861,-0.352682 0.246768,-0.675538 0.345676,-1.020948 0.230862,-0.806232 0.190324,-1.647314 0.332434,-2.464655 0.07393,-0.425214 0.425395,-1.701304 0.430794,-2.063176 0.005,-0.334842 -0.184995,-1.529105 -0.372157,-1.86646 -0.149464,-0.269409 -0.461712,-0.428379 -0.598193,-0.704592 -0.214721,-0.434552 -0.0785,-0.868537 -0.196719,-0.802951 -0.992562,0.550664 -1.959892,1.663936 -2.818367,2.392775 -0.375783,0.319038 -0.728204,0.667833 -1.127347,0.957111 -0.254406,0.184378 -0.526327,0.357424 -0.824231,0.457275 -0.08262,0.0277 -0.04515,-0.204159 0.02128,-0.260557"
       id="path7677" />
  </g>
</svg>
